<svg width="928" height="312" viewBox="0 0 928 312" fill="none" xmlns="http://www.w3.org/2000/svg">
<rect width="928" height="312" fill="black"/>
<path d="M103.32 191.28V201H57.72V119.4H102.12V129.24H68.16V154.8H98.52V164.64H68.16V191.28H103.32ZM125.19 186.6V112.2H135.03V186.12C135.03 188.28 135.35 189.92 135.99 191.04C136.71 192.08 138.11 192.6 140.19 192.6H142.11V201.6H139.35C134.07 201.6 130.39 200.2 128.31 197.4C126.23 194.6 125.19 191 125.19 186.6ZM206.031 197.52C202.431 199.28 198.831 200.48 195.231 201.12C191.631 201.84 188.311 202.2 185.271 202.2C176.711 202.2 170.311 199.76 166.071 194.88C161.911 190 159.831 183.32 159.831 174.84V167.64C159.831 159.4 161.911 152.8 166.071 147.84C170.311 142.88 176.271 140.4 183.951 140.4C188.031 140.4 191.751 141.24 195.111 142.92C198.551 144.52 201.271 147 203.271 150.36C205.351 153.64 206.391 157.88 206.391 163.08C206.391 166.44 205.911 170.28 204.951 174.6H169.551V174.84C169.551 180.92 170.791 185.52 173.271 188.64C175.831 191.76 179.911 193.32 185.511 193.32C188.071 193.32 190.871 193 193.911 192.36C197.031 191.72 200.071 190.72 203.031 189.36L206.031 197.52ZM183.951 149.04C179.311 149.04 175.791 150.56 173.391 153.6C171.071 156.56 169.791 160.76 169.551 166.2H196.431C196.671 164.76 196.791 163.4 196.791 162.12C196.791 157.64 195.511 154.36 192.951 152.28C190.471 150.12 187.471 149.04 183.951 149.04ZM257.979 149.64C255.739 149.64 253.099 150.2 250.059 151.32C247.099 152.44 243.499 154.72 239.259 158.16V201H229.419V141.6H238.779V149.88C243.019 146.28 246.859 143.8 250.299 142.44C253.819 141.08 257.179 140.4 260.379 140.4C265.899 140.4 270.099 142.16 272.979 145.68C275.939 149.12 277.419 154.04 277.419 160.44V201H267.579V161.88C267.579 153.72 264.379 149.64 257.979 149.64ZM347.414 201.6C343.734 201.6 340.774 200.76 338.534 199.08C336.374 197.4 334.854 195.32 333.974 192.84C330.054 196.28 326.494 198.72 323.294 200.16C320.094 201.52 316.894 202.2 313.694 202.2C308.494 202.2 304.654 200.52 302.174 197.16C299.694 193.8 298.454 189.68 298.454 184.8C298.454 181.52 299.054 178.6 300.254 176.04C301.454 173.48 303.494 171.48 306.374 170.04C309.254 168.52 313.134 167.76 318.014 167.76C320.174 167.76 322.534 167.92 325.094 168.24C327.654 168.48 330.254 168.8 332.894 169.2V161.16C332.894 156.68 331.894 153.64 329.894 152.04C327.974 150.36 325.134 149.52 321.374 149.52C316.254 149.52 310.534 150.92 304.214 153.72L301.094 145.56C304.774 143.88 308.294 142.6 311.654 141.72C315.014 140.84 318.414 140.4 321.854 140.4C327.454 140.4 331.734 141.32 334.694 143.16C337.654 145 339.694 147.44 340.814 150.48C341.934 153.52 342.494 156.84 342.494 160.44V186.12C342.494 187.96 342.854 189.52 343.574 190.8C344.294 192 345.734 192.6 347.894 192.6H349.214V201.6H347.414ZM308.174 184.68C308.174 187.4 308.814 189.6 310.094 191.28C311.374 192.96 313.214 193.8 315.614 193.8C317.694 193.8 320.094 193.2 322.814 192C325.534 190.72 328.894 188.2 332.894 184.44V176.88C327.454 176 322.654 175.56 318.494 175.56C314.814 175.56 312.174 176.32 310.574 177.84C308.974 179.36 308.174 181.64 308.174 184.68ZM403.447 201V119.4H414.367C421.647 129.8 428.327 140.28 434.407 150.84C440.567 161.32 446.327 172.28 451.687 183.72L450.487 152.52V119.4H460.687V201H449.767C444.167 189.32 438.367 177.96 432.367 166.92C426.447 155.8 419.967 144.96 412.927 134.4L413.647 167.64V201H403.447ZM500.578 127.08H489.538V116.04H500.578V127.08ZM499.978 201H490.138V141.6H499.978V201ZM563.793 201L547.113 173.52C545.593 175.04 543.993 176.6 542.313 178.2C540.633 179.8 538.873 181.4 537.033 183V201H527.193V112.2H537.033V171.96C542.233 166.92 546.833 162 550.833 157.2C554.913 152.4 558.633 147.2 561.993 141.6H573.273C570.393 146.4 567.433 150.84 564.393 154.92C561.433 158.92 558.073 163 554.313 167.16L575.673 201H563.793ZM639.764 167.64V174.84C639.764 183.32 637.564 190 633.164 194.88C628.844 199.76 622.644 202.2 614.564 202.2C606.564 202.2 600.364 199.76 595.964 194.88C591.564 190 589.364 183.32 589.364 174.84V167.64C589.364 159.32 591.524 152.72 595.844 147.84C600.244 142.88 606.484 140.4 614.564 140.4C622.644 140.4 628.844 142.88 633.164 147.84C637.564 152.72 639.764 159.32 639.764 167.64ZM629.564 167.64C629.564 161.96 628.284 157.52 625.724 154.32C623.164 151.04 619.444 149.4 614.564 149.4C609.764 149.4 606.044 151.04 603.404 154.32C600.844 157.52 599.564 161.96 599.564 167.64V174.84C599.564 180.76 600.844 185.32 603.404 188.52C606.044 191.72 609.764 193.32 614.564 193.32C619.444 193.32 623.164 191.72 625.724 188.52C628.284 185.32 629.564 180.76 629.564 174.84V167.64ZM663.526 186.6V112.2H673.366V186.12C673.366 188.28 673.686 189.92 674.326 191.04C675.046 192.08 676.446 192.6 678.526 192.6H680.446V201.6H677.686C672.406 201.6 668.726 200.2 666.646 197.4C664.566 194.6 663.526 191 663.526 186.6ZM748.327 167.64V174.84C748.327 183.32 746.127 190 741.727 194.88C737.407 199.76 731.207 202.2 723.127 202.2C715.127 202.2 708.927 199.76 704.527 194.88C700.127 190 697.927 183.32 697.927 174.84V167.64C697.927 159.32 700.087 152.72 704.407 147.84C708.807 142.88 715.047 140.4 723.127 140.4C731.207 140.4 737.407 142.88 741.727 147.84C746.127 152.72 748.327 159.32 748.327 167.64ZM738.127 167.64C738.127 161.96 736.847 157.52 734.287 154.32C731.727 151.04 728.007 149.4 723.127 149.4C718.327 149.4 714.607 151.04 711.967 154.32C709.407 157.52 708.127 161.96 708.127 167.64V174.84C708.127 180.76 709.407 185.32 711.967 188.52C714.607 191.72 718.327 193.32 723.127 193.32C728.007 193.32 731.727 191.72 734.287 188.52C736.847 185.32 738.127 180.76 738.127 174.84V167.64ZM814.477 141.6L793.477 201H784.237L762.997 141.6H773.197L783.157 170.52L789.157 188.64L795.037 170.52L804.757 141.6H814.477ZM877.078 201.6C873.398 201.6 870.438 200.76 868.198 199.08C866.038 197.4 864.518 195.32 863.638 192.84C859.718 196.28 856.158 198.72 852.958 200.16C849.758 201.52 846.558 202.2 843.358 202.2C838.158 202.2 834.318 200.52 831.838 197.16C829.358 193.8 828.118 189.68 828.118 184.8C828.118 181.52 828.718 178.6 829.918 176.04C831.118 173.48 833.158 171.48 836.038 170.04C838.918 168.52 842.798 167.76 847.678 167.76C849.838 167.76 852.198 167.92 854.758 168.24C857.318 168.48 859.918 168.8 862.558 169.2V161.16C862.558 156.68 861.558 153.64 859.558 152.04C857.638 150.36 854.798 149.52 851.038 149.52C845.918 149.52 840.198 150.92 833.878 153.72L830.758 145.56C834.438 143.88 837.958 142.6 841.318 141.72C844.678 140.84 848.078 140.4 851.518 140.4C857.118 140.4 861.398 141.32 864.358 143.16C867.318 145 869.358 147.44 870.478 150.48C871.598 153.52 872.158 156.84 872.158 160.44V186.12C872.158 187.96 872.518 189.52 873.238 190.8C873.958 192 875.398 192.6 877.558 192.6H878.878V201.6H877.078ZM837.838 184.68C837.838 187.4 838.478 189.6 839.758 191.28C841.038 192.96 842.878 193.8 845.278 193.8C847.358 193.8 849.758 193.2 852.478 192C855.198 190.72 858.558 188.2 862.558 184.44V176.88C857.118 176 852.318 175.56 848.158 175.56C844.478 175.56 841.838 176.32 840.238 177.84C838.638 179.36 837.838 181.64 837.838 184.68Z" fill="white"/>
</svg>
